<svg xmlns="http://www.w3.org/2000/svg" viewBox="0 0 64 64">
  <rect width="64" height="64" rx="12" fill="#1e3a5f"/>
  <!-- Bold S built from two nested arcs like frequency bands -->
  <path d="M40 14 C28 14, 18 18, 18 26 C18 34, 32 34, 32 34 C32 34, 46 34, 46 42 C46 50, 36 54, 24 54" fill="none" stroke="#38bdf8" stroke-width="5" stroke-linecap="round"/>
  <path d="M42 10 C26 10, 14 16, 14 26 C14 36, 32 36, 32 36 C32 36, 50 36, 50 46 C50 56, 38 58, 22 58" fill="none" stroke="#38bdf8" stroke-width="2" stroke-linecap="round" opacity="0.3"/>
  <path d="M38 18 C30 18, 22 20, 22 26 C22 32, 32 32, 32 32 C32 32, 42 32, 42 38 C42 44, 34 50, 26 50" fill="none" stroke="#38bdf8" stroke-width="2" stroke-linecap="round" opacity="0.3"/>
</svg>
